<?xml version="1.0" encoding="UTF-8" standalone="no"?>
<!DOCTYPE svg PUBLIC "-//W3C//DTD SVG 1.1//EN" "http://www.w3.org/Graphics/SVG/1.1/DTD/svg11.dtd">
<svg xmlns="http://www.w3.org/2000/svg" version="1.1" viewBox="0 0 100 100">
<path fill="#42bb50" d="
  M 67.57 41.49
  A 1.35 1.33 -75.6 0 1 68.25 42.66
  L 68.25 49.41
  A 0.33 0.32 -75.6 0 1 67.77 49.70
  L 41.33 34.66
  A 1.39 1.38 45.2 0 0 39.97 34.65
  L 13.65 49.67
  A 0.44 0.44 -14.6 0 1 13.00 49.29
  L 13.00 42.88
  A 1.67 1.64 75.7 0 1 13.84 41.43
  L 40.07 26.49
  A 0.88 0.86 44.4 0 1 40.94 26.49
  L 67.57 41.49
  Z"
/>
<path fill="#3eb24b" d="
  M 87.31 41.47
  A 1.37 1.36 -75.4 0 1 88.00 42.66
  L 88.00 49.30
  A 0.40 0.39 14.8 0 1 87.41 49.64
  L 61.10 34.67
  A 1.66 1.57 15.8 0 1 60.26 33.26
  L 60.31 26.88
  A 0.46 0.45 15.4 0 1 60.99 26.50
  L 87.31 41.47
  Z"
/>
<path fill="#3eb24b" d="
  M 80.53 35.87
  Q 77.52 33.49 78.33 29.72
  A 1.04 0.91 -83.9 0 1 79.22 28.90
  L 82.32 28.83
  A 0.70 0.54 84.3 0 1 82.89 29.43
  Q 83.44 32.93 82.93 35.05
  Q 82.37 37.34 80.53 35.87
  Z"
/>
<path fill="#010002" fill-opacity="0.953" d="
  M 21.98 62.88
  L 24.45 62.75
  A 0.42 0.39 9.9 0 1 24.87 63.30
  Q 24.61 63.82 23.50 63.50
  Q 20.97 62.78 20.81 64.06
  Q 20.38 67.51 23.83 66.47
  A 1.04 0.72 -26.9 0 1 24.72 66.59
  Q 25.26 67.08 23.74 67.17
  Q 23.33 67.19 22.65 67.06
  Q 19.84 66.54 20.88 69.46
  A 1.04 0.94 86.2 0 0 21.54 70.10
  Q 22.69 70.44 23.89 70.11
  A 1.45 1.03 -36.2 0 1 24.62 70.10
  Q 26.71 70.67 24.00 70.72
  Q 22.38 70.75 20.63 70.75
  A 0.62 0.61 -0.5 0 1 20.01 70.15
  Q 19.96 66.60 20.04 63.81
  Q 20.06 63.18 20.37 62.94
  Q 20.66 62.70 21.04 62.80
  Q 21.51 62.91 21.98 62.88
  Z"
/>
<path fill="#010002" fill-opacity="0.953" d="
  M 47.98 63.16
  Q 50.70 62.60 52.56 63.44
  Q 55.71 64.86 53.25 67.00
  Q 51.35 68.66 53.13 69.92
  A 0.67 0.36 37.8 0 1 53.47 70.67
  Q 53.33 70.81 52.98 70.67
  A 1.46 0.79 75.6 0 1 52.37 70.01
  Q 51.40 68.13 49.19 68.32
  Q 47.89 68.43 48.14 69.81
  A 0.83 0.65 68.8 0 1 47.92 70.55
  Q 47.13 71.22 47.42 70.04
  Q 47.50 69.72 47.50 69.45
  Q 47.50 66.48 47.50 63.75
  A 0.60 0.60 -5.9 0 1 47.98 63.16
  Z
  M 51.31 63.69
  Q 47.22 62.35 48.48 67.12
  A 0.80 0.78 -2.7 0 0 49.13 67.70
  Q 51.18 67.99 52.44 66.94
  Q 54.92 64.87 51.31 63.69
  Z"
/>
<path fill="#010002" fill-opacity="0.953" d="
  M 73.10 67.76
  Q 72.60 68.90 72.65 70.18
  A 0.41 0.34 -83.4 0 1 72.20 70.61
  Q 71.67 70.44 71.81 69.82
  Q 71.95 69.20 71.96 69.03
  Q 72.04 66.71 71.99 63.76
  A 0.99 0.99 89.4 0 1 72.98 62.75
  L 76.25 62.75
  A 0.95 0.52 -5.0 0 1 77.07 63.11
  Q 77.30 63.70 74.34 63.32
  A 1.46 1.46 15.0 0 0 72.81 64.20
  Q 71.66 66.87 74.19 66.77
  Q 74.55 66.76 74.80 66.80
  Q 78.97 67.51 73.81 67.33
  A 0.75 0.70 11.9 0 0 73.10 67.76
  Z"
/>
<path fill="#010002" fill-opacity="0.953" d="
  M 58.00 64.25
  Q 57.98 65.81 57.25 66.70
  Q 56.02 68.18 57.95 68.24
  Q 61.67 68.36 59.89 66.07
  Q 59.65 65.77 59.45 65.20
  Q 59.11 64.26 58.00 64.25
  Q 58.18 62.28 59.17 63.34
  Q 59.45 63.64 59.72 64.22
  Q 61.12 67.14 62.53 70.05
  A 0.47 0.34 72.3 0 1 62.31 70.70
  Q 61.92 70.71 61.69 70.06
  Q 61.06 68.32 59.29 68.78
  A 1.62 1.57 45.9 0 1 58.35 68.75
  Q 56.73 68.21 55.95 69.72
  Q 54.80 71.96 55.19 69.44
  Q 55.38 68.15 58.00 64.25
  Z"
/>
<path fill="#010002" fill-opacity="0.953" d="
  M 66.75 66.70
  Q 68.33 65.75 68.95 63.92
  Q 69.09 63.50 69.34 63.30
  Q 70.12 62.64 69.46 64.64
  Q 69.19 65.44 68.59 66.03
  Q 66.79 67.83 66.90 70.19
  A 0.41 0.32 -81.8 0 1 66.45 70.62
  Q 66.05 70.42 66.15 69.70
  Q 66.23 69.12 66.17 68.80
  Q 65.69 66.41 64.11 64.51
  Q 63.93 64.29 63.83 64.07
  Q 63.03 62.24 64.33 63.57
  Q 64.49 63.74 64.61 63.97
  Q 65.29 65.26 66.05 66.51
  A 0.52 0.50 58.9 0 0 66.75 66.70
  Z"
/>
<rect fill="#010002" fill-opacity="0.953" x="79.25" y="63.00" width="0.74" height="7.72" rx="0.29"/>
<path fill="#010002" fill-opacity="0.953" d="
  M 29.49 70.21
  Q 36.76 70.57 28.45 70.76
  A 0.68 0.67 -0.8 0 1 27.75 70.09
  L 27.80 63.81
  Q 27.80 63.09 28.29 63.41
  Q 28.73 63.69 28.50 64.75
  Q 28.00 67.08 28.92 69.80
  A 0.64 0.62 -8.1 0 0 29.49 70.21
  Z"
/>
<path fill="#010002" fill-opacity="0.953" d="
  M 39.05 66.35
  L 43.31 66.31
  A 0.69 0.62 85.5 0 0 43.90 65.53
  Q 43.61 63.49 44.22 63.42
  A 0.61 0.40 88.1 0 1 44.66 64.05
  L 44.66 70.19
  A 0.45 0.38 -83.7 0 1 44.18 70.65
  Q 43.43 70.44 43.71 69.24
  Q 44.42 66.27 42.19 67.09
  A 2.57 2.54 41.7 0 1 40.66 67.17
  Q 38.33 66.58 38.66 69.87
  A 0.99 0.98 78.4 0 1 37.98 70.91
  Q 37.37 71.10 37.50 69.48
  Q 37.73 66.74 37.75 63.99
  A 0.62 0.38 -86.3 0 1 38.21 63.34
  Q 38.64 63.44 38.34 65.15
  A 1.03 0.77 -83.9 0 0 39.05 66.35
  Z"
/>
</svg>
